<svg id="レイヤー_1" data-name="レイヤー 1" xmlns="http://www.w3.org/2000/svg" viewBox="0 0 750 150"><defs><style>.cls-1,.cls-3{fill:#031e36;}.cls-1,.cls-2{stroke:#031e36;stroke-miterlimit:10;}.cls-2,.cls-4{fill:#fff;}</style></defs><title>アートボード 1</title><polygon class="cls-1" points="730.76 47.79 480.75 47.79 480.75 102.21 730.76 102.21 750 75 730.76 47.79"/><polygon class="cls-2" points="556.9 47.79 306.87 47.79 306.87 102.21 556.9 102.21 576.13 75 556.9 47.79"/><polygon class="cls-1" points="383.02 47.79 133 47.79 133 102.2 383.02 102.2 402.25 75 383.02 47.79"/><polygon class="cls-2" points="190.34 47.79 0 47.79 0.21 102.2 190.34 102.2 209.56 75 190.34 47.79"/><path class="cls-3" d="M93.34,75.62h1l-.57,2.59h.05a5,5,0,0,1,.82-1.13,5.37,5.37,0,0,1,1.17-.92,6.45,6.45,0,0,1,1.42-.62,5.87,5.87,0,0,1,3.85.19,4.26,4.26,0,0,1,1.54,1.17,4.56,4.56,0,0,1,.88,1.75,8.39,8.39,0,0,1,.27,2.18,10.25,10.25,0,0,1-.45,3A8.87,8.87,0,0,1,102,86.51a7.17,7.17,0,0,1-2.17,2,5.63,5.63,0,0,1-2.94.76,4.34,4.34,0,0,1-2.93-1,5.21,5.21,0,0,1-1.63-2.74h0l-1.81,8.22h-1ZM96.91,88.4a4.53,4.53,0,0,0,2.57-.73,6.49,6.49,0,0,0,1.83-1.84,8.28,8.28,0,0,0,1.1-2.46,9.77,9.77,0,0,0,.36-2.57,6.3,6.3,0,0,0-.26-1.85,4.35,4.35,0,0,0-.76-1.46,3.48,3.48,0,0,0-1.27-1,4.33,4.33,0,0,0-1.8-.35,4.42,4.42,0,0,0-2.56.76,6.66,6.66,0,0,0-1.85,1.92,9.41,9.41,0,0,0-1.12,2.49,9.28,9.28,0,0,0-.38,2.5,4.81,4.81,0,0,0,.29,1.59,4.89,4.89,0,0,0,.82,1.48A4.19,4.19,0,0,0,95.16,88,3.61,3.61,0,0,0,96.91,88.4Z"/><path class="cls-3" d="M107.64,75.62h1l-.73,3.19h.05a7.1,7.1,0,0,1,2-2.5,4.76,4.76,0,0,1,3-1h.41l.41,0-.28,1a3.05,3.05,0,0,0-.81-.1,3.93,3.93,0,0,0-2.45.75,6.61,6.61,0,0,0-1.67,1.85,10.22,10.22,0,0,0-1.06,2.37c-.26.84-.47,1.61-.62,2.28l-1.17,5.39h-1Z"/><path class="cls-3" d="M114.89,75.62h1L113.1,88.94h-1ZM116,70.44h1l-.55,2.67h-1Z"/><path class="cls-3" d="M119.27,75.62h1l-.65,2.9h.05a7,7,0,0,1,2.23-2.34,5.67,5.67,0,0,1,3.16-.87,4.1,4.1,0,0,1,1.44.25,3.48,3.48,0,0,1,2,1.89,3.71,3.71,0,0,1,.31,1.54,5.22,5.22,0,0,1,0,.6c0,.24-.06.49-.1.75s-.09.51-.13.74l-.12.58-1.63,7.28h-1l1.63-7.26c0-.12,0-.29.09-.52l.13-.71c0-.25.08-.5.12-.77a5.11,5.11,0,0,0,.05-.67A2.74,2.74,0,0,0,127,77a3.19,3.19,0,0,0-2.32-.79,4.3,4.3,0,0,0-2.27.6,6.2,6.2,0,0,0-1.74,1.54,9.33,9.33,0,0,0-1.23,2.1,12.06,12.06,0,0,0-.72,2.27l-1.33,6.27h-1Z"/><path class="cls-3" d="M130.72,89.87a3,3,0,0,0,1,2.46,4,4,0,0,0,2.64.83,6.27,6.27,0,0,0,2.33-.38,4.31,4.31,0,0,0,1.54-1,4.76,4.76,0,0,0,1-1.54,13.48,13.48,0,0,0,.58-1.91l.59-2.64h0a5.6,5.6,0,0,1-1.93,2,5.14,5.14,0,0,1-2.76.72,5.59,5.59,0,0,1-2.18-.39,3.94,3.94,0,0,1-1.54-1.11,4.74,4.74,0,0,1-.91-1.71,7.66,7.66,0,0,1-.3-2.2,9.09,9.09,0,0,1,.44-2.78,8.25,8.25,0,0,1,1.27-2.49A6.37,6.37,0,0,1,134.5,76a5.71,5.71,0,0,1,2.79-.68,5.19,5.19,0,0,1,1.68.27,4.81,4.81,0,0,1,1.41.75,3.72,3.72,0,0,1,1,1.17,3.47,3.47,0,0,1,.39,1.52h.05l.75-3.39h1l-2.75,12.7a12,12,0,0,1-.75,2.42,5.65,5.65,0,0,1-1.23,1.79,5,5,0,0,1-1.88,1.11,8.41,8.41,0,0,1-2.7.38,6,6,0,0,1-1.8-.27,4.1,4.1,0,0,1-1.45-.81,3.63,3.63,0,0,1-.95-1.29,3.88,3.88,0,0,1-.29-1.78Zm6.58-13.71a4.65,4.65,0,0,0-2.37.61,5.69,5.69,0,0,0-1.76,1.58,7.16,7.16,0,0,0-1.09,2.19,8.11,8.11,0,0,0-.38,2.41,5.32,5.32,0,0,0,1,3.4,3.81,3.81,0,0,0,3.16,1.23,4.09,4.09,0,0,0,2.36-.69,6.18,6.18,0,0,0,1.7-1.74,7.93,7.93,0,0,0,1-2.32,9.46,9.46,0,0,0,.33-2.44,4.48,4.48,0,0,0-.41-2,4,4,0,0,0-1-1.31,3.75,3.75,0,0,0-1.29-.7A4.58,4.58,0,0,0,137.31,76.16Z"/><path class="cls-3" d="M62.41,85.63A9.56,9.56,0,0,0,65,89.44a11.55,11.55,0,0,0,4.22,2.36,17.83,17.83,0,0,0,5.5.8,20.35,20.35,0,0,0,3.65-.39,12.49,12.49,0,0,0,4-1.45,9.41,9.41,0,0,0,3.16-3,8.7,8.7,0,0,0,1.3-5,6,6,0,0,0-.91-3.42,8.1,8.1,0,0,0-2.36-2.28,14.14,14.14,0,0,0-3.32-1.53q-1.86-.6-3.83-1.17c-1.31-.38-2.59-.79-3.84-1.24a14,14,0,0,1-3.32-1.68A8.18,8.18,0,0,1,66.86,69,7.11,7.11,0,0,1,66,65.24a10,10,0,0,1,1.14-4.71,9.49,9.49,0,0,1,2.85-3.21,12.32,12.32,0,0,1,4-1.84,18.44,18.44,0,0,1,4.66-.59,21.1,21.1,0,0,1,5.29.62,10.61,10.61,0,0,1,4.07,2A8.49,8.49,0,0,1,90.55,61a12.24,12.24,0,0,1,.65,5.28h-1a10.89,10.89,0,0,0-.6-4.87,7.78,7.78,0,0,0-2.36-3.21,9.62,9.62,0,0,0-3.76-1.79,19.9,19.9,0,0,0-4.79-.55,17.28,17.28,0,0,0-4.2.52,11.11,11.11,0,0,0-3.7,1.66A9.18,9.18,0,0,0,68.08,61,8.58,8.58,0,0,0,67,65.24a5.74,5.74,0,0,0,.83,3.37,7.48,7.48,0,0,0,2.33,2.26,15.4,15.4,0,0,0,3.32,1.52c1.25.42,2.52.81,3.83,1.2s2.6.79,3.86,1.24a14,14,0,0,1,3.37,1.71,8.32,8.32,0,0,1,2.38,2.54,7.1,7.1,0,0,1,.91,3.73,9.83,9.83,0,0,1-1.32,5.31,10.15,10.15,0,0,1-3.32,3.32,13.27,13.27,0,0,1-4.28,1.68,20.8,20.8,0,0,1-4.2.47,20.54,20.54,0,0,1-5.78-.78,12.19,12.19,0,0,1-4.59-2.41,10.07,10.07,0,0,1-2.88-4.09,12.75,12.75,0,0,1-.65-5.83h1A11.11,11.11,0,0,0,62.41,85.63Z"/><path class="cls-4" d="M282.41,91.38h-1l.62-2.8-.05-.05a9.45,9.45,0,0,1-.93,1.34,5.44,5.44,0,0,1-1.12,1,4.64,4.64,0,0,1-1.38.62,6.83,6.83,0,0,1-1.78.21,4.18,4.18,0,0,1-1.44-.25,3.45,3.45,0,0,1-1.21-.72,3.49,3.49,0,0,1-.83-1.17A3.66,3.66,0,0,1,273,88a6,6,0,0,1,0-.6c0-.24.06-.49.1-.75l.13-.74c0-.23.08-.43.11-.58L275,78.06h1l-1.64,7.26c0,.12-.07.3-.12.52s-.09.46-.13.73-.08.52-.1.77,0,.47,0,.66a2.73,2.73,0,0,0,.82,2.06,3.2,3.2,0,0,0,2.32.79,4,4,0,0,0,2.16-.6A6.3,6.3,0,0,0,281,88.7a9.24,9.24,0,0,0,1.22-2.1,13.19,13.19,0,0,0,.71-2.27l1.32-6.27h1Z"/><path class="cls-4" d="M288.76,78.06h1l-.59,2.78,0,0a7.44,7.44,0,0,1,.84-1.22,5.84,5.84,0,0,1,1.08-1,5.06,5.06,0,0,1,1.29-.67,4.4,4.4,0,0,1,1.5-.25,3.19,3.19,0,0,1,2.42.88,3.39,3.39,0,0,1,.84,2.44h.07a5.75,5.75,0,0,1,1.93-2.4,4.88,4.88,0,0,1,2.91-.92,4.47,4.47,0,0,1,1.35.2,3.41,3.41,0,0,1,1.15.62,3,3,0,0,1,.81,1,3,3,0,0,1,.3,1.36,7.47,7.47,0,0,1-.11,1.23c-.07.41-.16.84-.26,1.31l-1.68,7.9h-1l1.69-7.85c.05-.24.13-.58.22-1a6.19,6.19,0,0,0,.15-1.35,2.56,2.56,0,0,0-.26-1.19,2.24,2.24,0,0,0-.67-.79,2.72,2.72,0,0,0-1-.43,4.56,4.56,0,0,0-1.1-.13,3,3,0,0,0-1.62.49,6.39,6.39,0,0,0-1.46,1.26A8.44,8.44,0,0,0,297.55,82a7,7,0,0,0-.65,1.76l-1.63,7.59h-1l1.64-7.59a9,9,0,0,0,.21-1.22c0-.47.08-.91.08-1.32a2.4,2.4,0,0,0-2.59-2.65,3.34,3.34,0,0,0-1.94.61,6.83,6.83,0,0,0-1.57,1.53,9.45,9.45,0,0,0-1.13,2,11.54,11.54,0,0,0-.66,2l-1.43,6.61h-1Z"/><path class="cls-4" d="M309.38,78.06h1l-.59,2.78.05,0a7.54,7.54,0,0,1,.84-1.22,5.85,5.85,0,0,1,1.07-1A5.19,5.19,0,0,1,313,78a4.41,4.41,0,0,1,1.5-.25,3.18,3.18,0,0,1,2.42.88,3.37,3.37,0,0,1,.84,2.44h.08a5.77,5.77,0,0,1,1.93-2.4,4.89,4.89,0,0,1,2.92-.92,4.43,4.43,0,0,1,1.35.2,3.47,3.47,0,0,1,1.16.62,3.22,3.22,0,0,1,.8,1,3,3,0,0,1,.3,1.36,7.63,7.63,0,0,1-.11,1.23c-.07.41-.16.84-.26,1.31l-1.69,7.9h-1L325,83.52c.05-.24.13-.58.22-1a6.56,6.56,0,0,0,.14-1.35,2.51,2.51,0,0,0-.26-1.19,2.15,2.15,0,0,0-.68-.79,2.62,2.62,0,0,0-.94-.43,4.64,4.64,0,0,0-1.1-.13,3,3,0,0,0-1.62.49,6.49,6.49,0,0,0-1.45,1.26A8.47,8.47,0,0,0,318.17,82a7.31,7.31,0,0,0-.65,1.76l-1.63,7.59h-1l1.63-7.59a9.11,9.11,0,0,0,.21-1.22,12.66,12.66,0,0,0,.08-1.32,2.63,2.63,0,0,0-.7-2,2.59,2.59,0,0,0-1.89-.69,3.32,3.32,0,0,0-1.94.61,6.6,6.6,0,0,0-1.57,1.53,9.4,9.4,0,0,0-1.14,2,11.51,11.51,0,0,0-.66,2l-1.43,6.61h-1Z"/><path class="cls-4" d="M328.79,84.85c0,.24-.06.49-.09.73a6,6,0,0,0,0,.72A5.29,5.29,0,0,0,329,88a4.42,4.42,0,0,0,.81,1.45,3.79,3.79,0,0,0,1.33,1,4.19,4.19,0,0,0,1.8.36,4.89,4.89,0,0,0,1.78-.32,5.58,5.58,0,0,0,1.5-.85,5.27,5.27,0,0,0,1.11-1.23,4.67,4.67,0,0,0,.63-1.48h1a7,7,0,0,1-.83,1.9,6.22,6.22,0,0,1-1.32,1.51,5.88,5.88,0,0,1-1.78,1,6.6,6.6,0,0,1-2.19.35,5.59,5.59,0,0,1-2.23-.41A4.44,4.44,0,0,1,329,90.14a4.91,4.91,0,0,1-1-1.69,6.18,6.18,0,0,1-.33-2,11.41,11.41,0,0,1,.49-3.45,8.5,8.5,0,0,1,1.4-2.75,6.4,6.4,0,0,1,2.23-1.83,6.51,6.51,0,0,1,3-.66,5.13,5.13,0,0,1,2.07.39,4.24,4.24,0,0,1,1.53,1.07,4.54,4.54,0,0,1,.95,1.63,6.2,6.2,0,0,1,.33,2,9.64,9.64,0,0,1-.05,1c0,.32-.08.64-.13,1Zm9.72-.85c0-.22.07-.42.09-.6a3.3,3.3,0,0,0,0-.52,5.25,5.25,0,0,0-.25-1.63,3.86,3.86,0,0,0-.74-1.36,3.53,3.53,0,0,0-1.27-.93,4.34,4.34,0,0,0-1.81-.35,5,5,0,0,0-2.11.44,5.18,5.18,0,0,0-1.65,1.2A6.94,6.94,0,0,0,329.65,82a9.37,9.37,0,0,0-.7,2Z"/><path class="cls-4" d="M343.3,78.06h1l-.73,3.19h.05a7,7,0,0,1,2-2.5,4.74,4.74,0,0,1,3-1h.42l.41,0-.28,1a2.93,2.93,0,0,0-.8-.11,3.92,3.92,0,0,0-2.45.75,6.49,6.49,0,0,0-1.67,1.85,10.26,10.26,0,0,0-1.06,2.37c-.26.85-.47,1.61-.62,2.28l-1.17,5.39h-1Z"/><path class="cls-4" d="M243.64,86.71a9.64,9.64,0,0,0,2.59,3.81,11.48,11.48,0,0,0,4.22,2.36,17.74,17.74,0,0,0,5.49.81,20.5,20.5,0,0,0,3.66-.39,12.56,12.56,0,0,0,4-1.46,9.45,9.45,0,0,0,3.16-3,8.74,8.74,0,0,0,1.29-5,6,6,0,0,0-.91-3.42,8,8,0,0,0-2.36-2.28,13.92,13.92,0,0,0-3.32-1.53q-1.86-.59-3.84-1.17t-3.83-1.24a14.3,14.3,0,0,1-3.32-1.68A8.29,8.29,0,0,1,248.1,70a7.14,7.14,0,0,1-.91-3.73,10,10,0,0,1,1.14-4.71,9.47,9.47,0,0,1,2.85-3.21,12.15,12.15,0,0,1,4-1.84,18.25,18.25,0,0,1,4.66-.6,21.06,21.06,0,0,1,5.28.62,10.69,10.69,0,0,1,4.07,2,8.49,8.49,0,0,1,2.54,3.55,12.27,12.27,0,0,1,.65,5.29h-1a10.84,10.84,0,0,0-.6-4.87,7.76,7.76,0,0,0-2.36-3.21,9.56,9.56,0,0,0-3.76-1.79,20.06,20.06,0,0,0-4.79-.54,17.24,17.24,0,0,0-4.2.52,11.27,11.27,0,0,0-3.7,1.66,9.24,9.24,0,0,0-2.67,2.9,8.56,8.56,0,0,0-1.09,4.25,5.75,5.75,0,0,0,.83,3.37,7.44,7.44,0,0,0,2.33,2.25,15.54,15.54,0,0,0,3.31,1.53q1.87.62,3.84,1.19c1.31.38,2.6.8,3.86,1.24a14.08,14.08,0,0,1,3.37,1.71,8.42,8.42,0,0,1,2.38,2.54,7.13,7.13,0,0,1,.91,3.73,9.79,9.79,0,0,1-1.32,5.31,10.16,10.16,0,0,1-3.32,3.32,13.28,13.28,0,0,1-4.27,1.68,21.19,21.19,0,0,1-4.2.47,20.48,20.48,0,0,1-5.78-.78,12.23,12.23,0,0,1-4.59-2.41,10,10,0,0,1-2.88-4.09,12.76,12.76,0,0,1-.65-5.83h1A11.11,11.11,0,0,0,243.64,86.71Z"/><path class="cls-3" d="M430.62,80.41l-7.57,12.18h-1.14l23.11-37h1l6.84,37h-1l-2.28-12.18ZM445.34,57h-.11L431.3,79.37h18.14Z"/><path class="cls-3" d="M467.61,90.13h-1l.62-2.8,0-.06a10.12,10.12,0,0,1-.93,1.34,5.21,5.21,0,0,1-1.12,1,4.6,4.6,0,0,1-1.38.63,7,7,0,0,1-1.78.2,4.33,4.33,0,0,1-1.44-.24,3.54,3.54,0,0,1-1.2-.73,3.61,3.61,0,0,1-.83-1.17,3.66,3.66,0,0,1-.31-1.54,5.25,5.25,0,0,1,0-.6c0-.24.06-.49.1-.75l.13-.74c0-.23.08-.43.12-.58l1.63-7.28h1l-1.63,7.25c0,.12-.08.3-.12.52s-.09.47-.13.73-.07.52-.1.77a6.55,6.55,0,0,0,0,.66A2.73,2.73,0,0,0,460,88.8a3.18,3.18,0,0,0,2.32.79,4,4,0,0,0,2.16-.6,6.29,6.29,0,0,0,1.71-1.54,8.74,8.74,0,0,0,1.22-2.1,12.46,12.46,0,0,0,.71-2.26l1.33-6.27h1Z"/><path class="cls-3" d="M472,76.81h2.46l.91-4.17h1l-.91,4.17h2.85l-.21.85h-2.8l-2,9.27a1.1,1.1,0,0,0-.05.22,3.35,3.35,0,0,1-.06.37c0,.13,0,.26-.06.38a1.88,1.88,0,0,0,0,.26,1,1,0,0,0,.35.84,1.91,1.91,0,0,0,1.15.27A14.67,14.67,0,0,0,476,89.2l-.18.86-.7,0c-.3,0-.6,0-.91,0a2.26,2.26,0,0,1-1.67-.52,2,2,0,0,1-.51-1.48,2.86,2.86,0,0,1,.08-.62c0-.24.09-.46.13-.64l2-9.2h-2.51Z"/><path class="cls-3" d="M487.76,90.13h-1l.62-2.8,0-.06a9.74,9.74,0,0,1-.93,1.34,5.19,5.19,0,0,1-1.12,1,4.62,4.62,0,0,1-1.38.63,6.94,6.94,0,0,1-1.78.2,4.34,4.34,0,0,1-1.44-.24,3.52,3.52,0,0,1-1.2-.73,3.58,3.58,0,0,1-.83-1.17,3.75,3.75,0,0,1-.31-1.54c0-.16,0-.35,0-.6s.06-.49.11-.75l.13-.74c0-.23.08-.43.12-.58l1.63-7.28h1l-1.64,7.25c0,.12-.07.3-.12.52l-.13.73c0,.26-.08.52-.11.77s0,.47,0,.66a2.72,2.72,0,0,0,.82,2.06,3.18,3.18,0,0,0,2.32.79,4,4,0,0,0,2.16-.6,6.37,6.37,0,0,0,1.71-1.54,9.14,9.14,0,0,0,1.22-2.1,12.81,12.81,0,0,0,.71-2.26l1.32-6.27h1Z"/><path class="cls-3" d="M494.11,76.81h1l-.59,2.77,0,.05a7.58,7.58,0,0,1,.84-1.22,5.73,5.73,0,0,1,1.07-1,5.15,5.15,0,0,1,1.3-.67,4.34,4.34,0,0,1,1.5-.25,3.18,3.18,0,0,1,2.42.88,3.37,3.37,0,0,1,.85,2.44h.08a5.69,5.69,0,0,1,1.93-2.4,4.88,4.88,0,0,1,2.92-.92,4.38,4.38,0,0,1,1.35.21,3.41,3.41,0,0,1,1.15.62,3.1,3.1,0,0,1,.81,1,3,3,0,0,1,.3,1.36,7.6,7.6,0,0,1-.11,1.23c-.07.41-.16.84-.26,1.31L509,90.13h-1l1.68-7.85.22-1a6.44,6.44,0,0,0,.14-1.35,2.55,2.55,0,0,0-.25-1.19,2.22,2.22,0,0,0-.68-.79,2.7,2.7,0,0,0-.95-.43,4.45,4.45,0,0,0-1.1-.13,3,3,0,0,0-1.61.49A6.3,6.3,0,0,0,504,79.11a8.29,8.29,0,0,0-1.13,1.67,7.29,7.29,0,0,0-.65,1.76l-1.63,7.6h-1l1.63-7.6a9,9,0,0,0,.21-1.21,12,12,0,0,0,.08-1.32,2.61,2.61,0,0,0-.7-2,2.58,2.58,0,0,0-1.89-.69A3.35,3.35,0,0,0,497,78a6.8,6.8,0,0,0-1.57,1.53,9.44,9.44,0,0,0-1.14,2,11.91,11.91,0,0,0-.66,2l-1.42,6.61h-1Z"/><path class="cls-3" d="M514.69,76.81h1l-.65,2.9h0a7.11,7.11,0,0,1,2.23-2.35,5.75,5.75,0,0,1,3.17-.86,4.13,4.13,0,0,1,1.44.25,3.46,3.46,0,0,1,2,1.89,3.7,3.7,0,0,1,.31,1.54,4.91,4.91,0,0,1,0,.6c0,.24-.06.49-.1.75s-.09.5-.13.74l-.12.58-1.64,7.28h-1l1.63-7.26c0-.12,0-.29.09-.52s.08-.46.13-.71.08-.5.12-.76a6.33,6.33,0,0,0,0-.67,2.74,2.74,0,0,0-.82-2.06,3.2,3.2,0,0,0-2.32-.79,4.32,4.32,0,0,0-2.27.6,6.29,6.29,0,0,0-1.73,1.54,9.33,9.33,0,0,0-1.23,2.1,12,12,0,0,0-.72,2.27l-1.32,6.27h-1Z"/><path class="cls-4" d="M609,56.5h1l3.21,35.65h.1l18-35.65H633l3.21,35.65h.1l18-35.65h1.19l-18.81,37h-1.35L632,57.43h-.11L613.7,93.5h-1.35Z"/><path class="cls-4" d="M651.79,77.72h1L650,91h-1Zm1.09-5.18h1l-.54,2.67h-1Z"/><path class="cls-4" d="M656.17,77.72h1l-.65,2.9h.05a7,7,0,0,1,2.23-2.34,5.72,5.72,0,0,1,3.16-.87,4.25,4.25,0,0,1,1.44.24,3.51,3.51,0,0,1,2,1.89,3.66,3.66,0,0,1,.31,1.54,5.15,5.15,0,0,1,0,.6c0,.24-.06.5-.1.75s-.09.5-.13.74-.09.43-.12.58L663.71,91h-1l1.63-7.25c0-.12,0-.29.09-.52l.13-.71c0-.26.08-.51.12-.77a5.64,5.64,0,0,0,0-.68,2.74,2.74,0,0,0-.81-2.06,3.19,3.19,0,0,0-2.32-.79,4.32,4.32,0,0,0-2.26.59,6.3,6.3,0,0,0-1.74,1.54,9.5,9.5,0,0,0-1.23,2.1,12.46,12.46,0,0,0-.73,2.27L654.33,91h-1Z"/><path class="cls-4" d="M667.67,77.72h2.46l.9-4.17h1l-.9,4.17H674l-.21.85H671l-2,9.28a1,1,0,0,0,0,.22c0,.12,0,.23-.07.36s-.05.25-.07.38,0,.21,0,.26a1,1,0,0,0,.35.85,1.9,1.9,0,0,0,1.15.27,14,14,0,0,0,1.48-.08l-.18.85c-.17,0-.41,0-.7,0s-.6,0-.91,0a2.27,2.27,0,0,1-1.67-.52,2,2,0,0,1-.51-1.48,2.88,2.88,0,0,1,.08-.62c.05-.24.1-.46.13-.65l2-9.2h-2.51Z"/><path class="cls-4" d="M675.16,84.51c0,.24-.06.48-.09.73a6.39,6.39,0,0,0,0,.72,5.29,5.29,0,0,0,.29,1.74,4.44,4.44,0,0,0,.82,1.45,3.82,3.82,0,0,0,1.32,1,4.29,4.29,0,0,0,1.8.36,4.85,4.85,0,0,0,1.78-.33,5.71,5.71,0,0,0,1.51-.85,5.37,5.37,0,0,0,1.11-1.23,4.57,4.57,0,0,0,.63-1.48h1a7.12,7.12,0,0,1-.83,1.9,6.08,6.08,0,0,1-1.32,1.5,5.88,5.88,0,0,1-1.77,1,6.65,6.65,0,0,1-2.19.35,5.57,5.57,0,0,1-2.23-.42,4.43,4.43,0,0,1-1.59-1.14,4.88,4.88,0,0,1-1-1.69,6.17,6.17,0,0,1-.32-2,11.62,11.62,0,0,1,.49-3.44,8.72,8.72,0,0,1,1.4-2.75,6.39,6.39,0,0,1,5.19-2.49,5.21,5.21,0,0,1,2.07.39,4.34,4.34,0,0,1,1.52,1.07,4.62,4.62,0,0,1,.95,1.63,6.13,6.13,0,0,1,.33,2,9.26,9.26,0,0,1-.05,1q0,.48-.13,1Zm9.72-.85.09-.6a3.43,3.43,0,0,0,0-.52,5.32,5.32,0,0,0-.25-1.63,3.88,3.88,0,0,0-.74-1.36,3.51,3.51,0,0,0-1.27-.93,4.42,4.42,0,0,0-1.81-.35,4.89,4.89,0,0,0-2.11.44,5.17,5.17,0,0,0-1.65,1.19A7.08,7.08,0,0,0,676,81.62a9.24,9.24,0,0,0-.7,2Z"/><path class="cls-4" d="M689.67,77.72h1l-.72,3.19H690a7,7,0,0,1,2-2.5,4.75,4.75,0,0,1,3-1h.41l.42,0-.28,1a3.25,3.25,0,0,0-.8-.1,4,4,0,0,0-2.45.75A6.63,6.63,0,0,0,690.63,81a10.31,10.31,0,0,0-1.06,2.37c-.26.84-.46,1.6-.62,2.28L687.78,91h-1Z"/></svg>